<svg width="14" height="18" viewBox="0 0 14 18" fill="none" xmlns="http://www.w3.org/2000/svg">
<path fill-rule="evenodd" clip-rule="evenodd" d="M7.15126 3.69762H6.93559C6.92596 3.59995 6.92596 3.50156 6.93559 3.40389C6.9633 2.60274 7.26827 1.83616 7.79827 1.23542C8.40538 0.529724 9.26183 0.0869448 10.1879 0C10.1972 0.10635 10.1972 0.213305 10.1879 0.319654C10.1613 1.14175 9.85715 1.93052 9.32522 2.55724C9.05854 2.88449 8.72842 3.15426 8.35479 3.35025C7.98115 3.54625 7.57175 3.66442 7.15126 3.69762ZM13.0693 5.42549C12.5461 5.74667 12.1132 6.19596 11.8113 6.73101C11.5095 7.26607 11.3486 7.86928 11.3439 8.4838C11.3463 9.17503 11.551 9.85038 11.9328 10.4262C12.3147 11.0021 12.8567 11.4531 13.492 11.7235C13.2453 12.5354 12.8758 13.3046 12.3964 14.0043C11.7062 14.9892 10.9902 15.9741 9.90321 15.9741C8.81624 15.9741 8.53155 15.3434 7.31517 15.3434C6.09879 15.3434 5.65883 16 4.65812 16C3.65741 16 2.93276 15.0842 2.1736 13.9611C1.11359 12.3898 0.532175 10.544 0.5 8.64795C0.5 5.52916 2.51867 3.87905 4.51146 3.87905C5.57256 3.87905 6.45249 4.5702 7.0995 4.5702C7.74651 4.5702 8.72134 3.83585 9.9291 3.83585C10.5478 3.82019 11.1609 3.95696 11.7144 4.23413C12.268 4.51131 12.7451 4.92041 13.1038 5.42549" fill="black"/>
</svg>
