<svg width="24" height="24" viewBox="0 0 24 24" fill="none" xmlns="http://www.w3.org/2000/svg">
<path d="M7.13567 4.16131C7.06625 4.16131 6.99676 4.16131 6.92734 4.16131C6.27801 4.18083 5.63953 4.33481 5.05104 4.61379C4.46256 4.89277 3.93654 5.29087 3.50533 5.78358C2.82875 6.54534 2.35805 7.47169 2.13907 8.47257C1.92009 9.47344 1.96026 10.5148 2.25567 11.4952C2.73875 13.0295 3.82065 14.2909 4.96616 15.4057C7.04311 17.4298 12.1747 21 12.1747 21C12.1747 21 17.3613 17.0983 19.4209 14.9216C20.4507 13.8333 21.4284 12.6158 21.8189 11.1608C22.0146 10.3798 22.0522 9.56669 21.9294 8.77056C21.8066 7.97443 21.5259 7.2118 21.1044 6.5287C20.5076 5.49976 19.5924 4.6995 18.501 4.25225C16.0133 3.31057 13.6384 5.18806 11.9607 6.87192C10.5548 5.59582 8.987 4.25812 7.13567 4.16131Z" stroke="black" stroke-miterlimit="10"/>
</svg>
